<svg width="28" height="29" viewBox="0 0 28 29" fill="none" xmlns="http://www.w3.org/2000/svg">
<path id="Exclude" fill-rule="evenodd" clip-rule="evenodd" d="M0.529798 4.87654C0 6.15559 0 7.77706 0 11.02V17.98C0 21.223 0 22.8444 0.529798 24.1235C1.2362 25.8289 2.59113 27.1838 4.29652 27.8902C5.57557 28.42 7.19704 28.42 10.44 28.42H17.4C20.643 28.42 22.2644 28.42 23.5435 27.8902C25.2489 27.1838 26.6038 25.8289 27.3102 24.1235C27.84 22.8444 27.84 21.223 27.84 17.98V11.02C27.84 7.77706 27.84 6.15559 27.3102 4.87654C26.6038 3.17114 25.2489 1.81621 23.5435 1.10982C22.2644 0.580017 20.643 0.580017 17.4 0.580017H10.44C7.19705 0.580017 5.57557 0.580017 4.29652 1.10982C2.59113 1.81621 1.2362 3.17114 0.529798 4.87654ZM16.0557 8.20217C16.0856 8.09388 15.9594 8.01059 15.8716 8.08059L8.10221 14.2709C8.02806 14.33 8.05225 14.4483 8.14364 14.4735L12.2851 15.6162C12.3468 15.6333 12.3831 15.6972 12.366 15.7589L11.0519 20.5215C11.022 20.6298 11.1481 20.7131 11.236 20.6431L19.0053 14.4528C19.0795 14.3937 19.0553 14.2755 18.9639 14.2502L14.8225 13.1075C14.7607 13.0904 14.7245 13.0266 14.7415 12.9648L16.0557 8.20217Z" fill="#2563EB"/>
</svg>
